<?xml version="1.0" encoding="UTF-8"?>
<svg width="54px" height="54px" viewBox="0 0 54 54" version="1.1" xmlns="http://www.w3.org/2000/svg" xmlns:xlink="http://www.w3.org/1999/xlink">
    <!-- Generator: Sketch 53 (72520) - https://sketchapp.com -->
    <title>Group</title>
    <desc>Created with Sketch.</desc>
    <g id="Page-1" stroke="none" stroke-width="1" fill="none" fill-rule="evenodd">
        <g id="Artboard" transform="translate(-205.000000, -812.000000)">
            <g id="Group" transform="translate(205.000000, 812.000000)">
                <circle id="Oval" fill="#51CF66" cx="27" cy="27" r="27"></circle>
                <path d="M20.3295366,41.9090843 C16.7613581,41.9090843 14.5340875,40.4090858 13.5113612,38.4090877 L15.1704506,37.3181796 C15.9090862,38.6477238 17.340903,40.0909042 20.3295366,40.0909042 C23.4204427,40.0909042 25.4999862,38.579542 25.4999862,35.3295451 L25.4999862,31.3977307 L25.3181682,31.3977307 C24.624987,33.0000019 23.0908976,34.818182 19.9545369,34.818182 C15.7727227,34.818182 12.7727256,31.5795487 12.7727256,26.2272811 C12.7727256,20.920468 15.6704501,17.3068351 19.9886278,17.3068351 C23.1931702,17.3068351 24.6363506,19.3068331 25.352259,20.8750135 L25.5568043,20.8750135 L25.5568043,17.5454712 L27.5340751,17.5454712 L27.5340751,35.454545 C27.5340751,39.886359 24.4658962,41.9090843 20.3295366,41.9090843 Z M20.1931731,32.965911 C23.5568062,32.965911 25.534077,30.4090953 25.534077,26.1931902 C25.534077,22.102285 23.6136243,19.1477424 20.1931731,19.1477424 C16.6931764,19.1477424 14.8068146,22.2613758 14.8068146,26.1931902 C14.8068146,30.1931864 16.7272673,32.965911 20.1931731,32.965911 Z M32.5113615,35 L32.5113615,17.5454712 L35.7954492,17.5454712 L35.7954492,20.3181958 L35.9772672,20.3181958 C36.6136303,18.4431976 38.3409014,17.2841078 40.4090812,17.2841078 C41.3636257,17.2841078 42.113625,17.5341076 42.6931699,17.9204708 L41.6022619,20.7613772 C41.1931714,20.556832 40.6818082,20.4204684 40.0227179,20.4204684 C37.6704474,20.4204684 35.9090855,22.0681942 35.9090855,24.3409193 L35.9090855,35 L32.5113615,35 Z" id="gr" fill="#FFFFFF" fill-rule="nonzero"></path>
            </g>
        </g>
    </g>
</svg>