<?xml version="1.0" encoding="UTF-8"?>
<svg width="54px" height="54px" viewBox="0 0 54 54" version="1.1" xmlns="http://www.w3.org/2000/svg" xmlns:xlink="http://www.w3.org/1999/xlink">
    <!-- Generator: Sketch 53 (72520) - https://sketchapp.com -->
    <title>ig</title>
    <desc>Created with Sketch.</desc>
    <g id="Page-1" stroke="none" stroke-width="1" fill="none" fill-rule="evenodd">
        <g id="Artboard" transform="translate(-134.000000, -812.000000)" fill="#FCC419" fill-rule="nonzero">
            <path d="M167.36525,826.1795 C165.70475,826.103 165.20525,826.0895 161,826.0895 C156.79475,826.0895 156.2975,826.10525 154.637,826.1795 C150.36425,826.37525 148.37525,828.398 148.1795,832.637 C148.10525,834.2975 148.08725,834.79475 148.08725,839 C148.08725,843.20525 148.10525,843.7025 148.1795,845.36525 C148.37525,849.593 150.35525,851.627 154.637,851.82275 C156.29525,851.897 156.79475,851.915 161,851.915 C165.2075,851.915 165.70475,851.89925 167.36525,851.82275 C171.638,851.62925 173.62475,849.59975 173.82275,845.36525 C173.897,843.70475 173.91275,843.20525 173.91275,839 C173.91275,834.79475 173.897,834.2975 173.82275,832.637 C173.62475,828.40025 171.6335,826.37525 167.36525,826.1795 Z M161,847.08875 C156.53375,847.08875 152.91125,843.4685 152.91125,839 C152.91125,834.53375 156.53375,830.9135 161,830.9135 C165.46625,830.9135 169.08875,834.53375 169.08875,839 C169.08875,843.46625 165.46625,847.08875 161,847.08875 Z M169.40825,832.484 C168.36425,832.484 167.51825,831.638 167.51825,830.594 C167.51825,829.55 168.36425,828.704 169.40825,828.704 C170.45225,828.704 171.29825,829.55 171.29825,830.594 C171.29825,831.63575 170.45225,832.484 169.40825,832.484 L169.40825,832.484 Z M166.24925,839 C166.24925,841.90025 163.898,844.24925 161,844.24925 C158.102,844.24925 155.75075,841.90025 155.75075,839 C155.75075,836.09975 158.102,833.75075 161,833.75075 C163.898,833.75075 166.24925,836.09975 166.24925,839 Z M161,812 C146.08925,812 134,824.08925 134,839 C134,853.91075 146.08925,866 161,866 C175.91075,866 188,853.91075 188,839 C188,824.08925 175.91075,812 161,812 Z M176.6555,845.4935 C176.39675,851.21975 173.2085,854.39225 167.49575,854.6555 C165.815,854.732 165.27725,854.75 161,854.75 C156.72275,854.75 156.18725,854.732 154.5065,854.6555 C148.7825,854.39225 145.60775,851.21525 145.3445,845.4935 C145.268,843.815 145.25,843.27725 145.25,839 C145.25,834.72275 145.268,834.18725 145.3445,832.5065 C145.60775,826.7825 148.78475,823.60775 154.5065,823.34675 C156.18725,823.268 156.72275,823.25 161,823.25 C165.27725,823.25 165.815,823.268 167.49575,823.34675 C173.222,823.61 176.399,826.79375 176.6555,832.5065 C176.732,834.18725 176.75,834.72275 176.75,839 C176.75,843.27725 176.732,843.815 176.6555,845.4935 Z" id="ig"></path>
        </g>
    </g>
</svg>