<?xml version="1.0" encoding="UTF-8"?>
<svg width="54px" height="54px" viewBox="0 0 54 54" version="1.1" xmlns="http://www.w3.org/2000/svg" xmlns:xlink="http://www.w3.org/1999/xlink">
    <!-- Generator: Sketch 53 (72520) - https://sketchapp.com -->
    <title>tg</title>
    <desc>Created with Sketch.</desc>
    <g id="Page-1" stroke="none" stroke-width="1" fill="none" fill-rule="evenodd">
        <g id="Artboard" transform="translate(-63.000000, -812.000000)" fill="#7048E8">
            <path d="M90,812 C75.0915,812 63,824.087 63,839 C63,853.91075 75.0915,866 90,866 C104.91075,866 117,853.91075 117,839 C117,824.087 104.91075,812 90,812 Z M97.254,852.20975 C97.677,852.509 98.2215,852.58325 98.7075,852.401 C99.19125,852.2165 99.549,851.80025 99.657,851.29625 C100.79775,845.93675 103.56525,832.36925 104.6025,827.49575 C104.68125,827.12675 104.55075,826.74425 104.26275,826.499 C103.9725,826.25375 103.572,826.184 103.2165,826.3145 C97.713,828.353 80.76375,834.7115 73.836,837.27425 C73.39725,837.4385 73.1115,837.85925 73.125,838.325 C73.14075,838.7885 73.4535,839.19125 73.9035,839.32625 C77.01075,840.2555 81.08775,841.54925 81.08775,841.54925 C81.08775,841.54925 82.9935,847.30475 83.98575,850.22975 C84.11175,850.59875 84.39975,850.88675 84.77775,850.98575 C85.158,851.08475 85.56075,850.98125 85.84425,850.7135 C87.4395,849.20825 89.9055,846.8795 89.9055,846.8795 C89.9055,846.8795 94.5945,850.31525 97.254,852.20975 L97.254,852.20975 Z M82.80225,840.82025 L85.00725,848.09 L85.49775,843.4865 C85.49775,843.4865 94.0095,835.80725 98.865,831.431 C99.00675,831.30275 99.02475,831.08675 98.90775,830.936 C98.79075,830.78525 98.57475,830.74925 98.415,830.85275 C92.79,834.44375 82.80225,840.82025 82.80225,840.82025 L82.80225,840.82025 Z" id="tg"></path>
        </g>
    </g>
</svg>