<?xml version="1.0" encoding="UTF-8"?>
<svg width="960px" height="452px" viewBox="0 0 960 452" version="1.1" xmlns="http://www.w3.org/2000/svg" xmlns:xlink="http://www.w3.org/1999/xlink">
    <!-- Generator: Sketch 52.5 (67469) - http://www.bohemiancoding.com/sketch -->
    <title>Group</title>
    <desc>Created with Sketch.</desc>
    <g id="SS17" stroke="none" stroke-width="1" fill="none" fill-rule="evenodd">
        <g id="dd" transform="translate(-9.000000, -22.000000)" stroke="#FA5252">
            <g id="Group" transform="translate(9.000000, 23.000000)">
                <path d="M3.63042491,224.94496 L409.075581,408.902319 C432.4409,420.500237 455.809274,426.346478 479.159303,426.497061 C502.488714,426.646342 525.796306,421.108498 549.250167,409.768994 L956.369575,225.05504 L550.924419,41.0976806 C527.5591,29.4997633 504.190726,23.6535221 480.840697,23.5029388 C457.511286,23.3536576 434.203694,28.8915022 410.783013,40.21546 L410.749833,40.2310056 L3.63042491,224.94496 Z M409.493656,37.5066058 L409.510317,37.4990465 L409.477137,37.5145922 C409.482646,37.5119286 409.488154,37.5092653 409.493663,37.5066024 Z" id="Shape" stroke-width="3"></path>
                <path d="M0.5,0 L0.5,450" id="Line" opacity="0.2" stroke-linecap="square" fill-rule="nonzero"></path>
                <path d="M480.5,0 L480.5,450" id="Line" opacity="0.2" stroke-linecap="square" fill-rule="nonzero"></path>
            </g>
        </g>
    </g>
</svg>