<?xml version="1.0" encoding="utf-8"?>
<!-- Generator: Adobe Illustrator 18.1.0, SVG Export Plug-In . SVG Version: 6.00 Build 0)  -->
<!DOCTYPE svg PUBLIC "-//W3C//DTD SVG 1.1//EN" "http://www.w3.org/Graphics/SVG/1.1/DTD/svg11.dtd">
<svg version="1.1" id="Layer_1" xmlns="http://www.w3.org/2000/svg" xmlns:xlink="http://www.w3.org/1999/xlink" x="0px" y="0px"
	 viewBox="0 0 1175.7 245.1" enable-background="new 0 0 1175.7 245.1" xml:space="preserve">
<g>
	<polygon fill="#1D1D1B" points="16.2,148 16.2,157.4 16.2,198.8 16.2,213 16.2,233.4 162,233.4 162,198.8 18.2,198.8 18.2,157.4 
		162,157.4 162,122.9 16.2,122.9 	"/>
	<polygon fill="#1D1D1B" points="463.1,12 522.1,120.7 606.3,120.7 607.3,120.7 608.3,120.7 608.3,10 606.3,10 606.3,118.9 
		547.3,10.2 463.1,10.2 462.1,10.2 461.1,10.2 461.1,120.6 463.1,120.6 	"/>
	<polygon fill="#1D1D1B" points="311.8,44.6 311.8,47 311.8,83.6 311.8,86 311.8,120.5 311.8,120.6 313.8,120.6 313.8,120.5 
		458.9,120.5 458.9,86 313.8,86 313.8,83.6 385.7,83.6 385.7,47 313.8,47 313.8,44.6 458.9,44.6 458.9,10.2 311.8,10.2 	"/>
	<path fill="#1D1D1B" d="M224.9,10.2h-61.1v0.1v2.1v108.3h1h1H250l60.1-110.5h-47.5H224.9z M165.8,118.9V12.4h57.9L165.8,118.9z"/>
	<polygon fill="#1D1D1B" points="905.3,120.7 845.3,10.2 760.1,10.2 820.1,120.7 	"/>
	<polygon fill="#1D1D1B" points="610.2,44.6 683.8,44.6 683.8,120.5 685.8,120.5 685.8,44.6 758.3,44.6 758.3,10 610.2,10 	"/>
	<polygon fill="#1D1D1B" points="865.6,44.6 938.5,44.6 938.5,120.5 940.5,120.5 940.5,44.6 1011.4,44.6 1011.4,10 865.6,10 	"/>
	<polygon fill="#1D1D1B" points="16.2,44.6 89.1,44.6 89.1,86 16.2,86 16.2,120.5 162,120.5 162,86 91.1,86 91.1,44.6 162,44.6 
		162,10.2 16.2,10.2 	"/>
	<polygon fill="#1D1D1B" points="1074.7,10.2 1048,59.4 1015.8,10 1013.4,10 1045.6,59.5 1047.9,59.5 1014.7,120.7 1099.8,120.7 
		1159.9,10.2 	"/>
	<path fill="#1D1D1B" d="M164.1,148v9.4v41.4V213v20.4h145.8V213v-14.2v-41.4V148v-25.2H164.1V148z M166.1,157.4h141.8v41.4H166.1
		V157.4z"/>
	<polygon fill="#1D1D1B" points="456.9,198.8 313.8,198.8 313.8,122.9 311.8,122.9 311.8,198.8 311.8,213 311.8,233.4 458.9,233.4 
		458.9,213 458.9,198.8 458.9,122.9 456.9,122.9 	"/>
	<polygon fill="#1D1D1B" points="612.2,157.4 685.9,157.4 685.9,122.9 610.2,122.9 610.2,152.3 610.2,157.4 610.2,159.9 
		610.2,190.7 610.2,196.5 755.4,196.5 755.4,198.8 685.9,198.8 685.9,233.4 757.3,233.4 757.3,220.4 757.3,198.8 757.3,196.5 
		757.3,182 757.3,159.9 612.2,159.9 	"/>
	<polygon fill="#1D1D1B" points="759.1,157.4 759.1,159.9 759.1,196.5 759.1,198.8 759.1,233.4 906.3,233.4 906.3,198.8 
		761.1,198.8 761.1,196.5 832.7,196.5 832.7,159.9 761.1,159.9 761.1,157.4 906.3,157.4 906.3,122.9 759.1,122.9 	"/>
	<path fill="#1D1D1B" d="M461.2,152.3v5.1v2.5v36.5v37h2v-37h63.9l23.9,37h57.4l-23.9-37h23.9v-5.7v-30.8v-2.5v-5.1v-29.4H461.2
		V152.3z M463.2,157.4h143.3v2.5H463.2V157.4z"/>
</g>
</svg>
